<svg xmlns="http://www.w3.org/2000/svg" width="34.464" height="41.553" viewBox="0 0 34.464 41.553">
  <g id="award3" transform="translate(-6.9 -1.699)">
    <path id="Path_436" data-name="Path 436" d="M37.714,20.512A10.682,10.682,0,1,0,27.032,31.194,10.682,10.682,0,0,0,37.714,20.512Zm-10.682,8.9A8.873,8.873,0,1,1,35.9,20.539,8.873,8.873,0,0,1,27.032,29.412Z" transform="translate(-2.9 -2.486)" fill="#f85200" stroke="#f85200" stroke-width="0.6"/>
    <path id="Path_437" data-name="Path 437" d="M32.81,20.585l-3.829,4.594L26.995,23.2a.888.888,0,0,0-1.256,1.256l2.669,2.669a.894.894,0,0,0,.635.266h.034a.887.887,0,0,0,.648-.314l4.45-5.344a.889.889,0,1,0-1.365-1.14Z" transform="translate(-5.798 -5.801)" fill="#f85200" stroke="#f85200" stroke-width="0.6"/>
    <path id="Path_438" data-name="Path 438" d="M40.929,38.079l-5.843-10.2a3.037,3.037,0,0,1,.935-.382,3.1,3.1,0,0,0,1.986-1.461,3.058,3.058,0,0,0,.273-2.45,3.2,3.2,0,0,1,.867-3.3,3.071,3.071,0,0,0,0-4.518,3.2,3.2,0,0,1-.887-3.3A3.071,3.071,0,0,0,36,8.552a3.222,3.222,0,0,1-2.416-2.416,3.071,3.071,0,0,0-3.911-2.259,3.228,3.228,0,0,1-3.3-.887,3.071,3.071,0,0,0-4.518,0,3.228,3.228,0,0,1-3.3.887,3.071,3.071,0,0,0-3.911,2.259,3.222,3.222,0,0,1-2.416,2.416,3.071,3.071,0,0,0-2.259,3.911,3.2,3.2,0,0,1-.846,3.3,3.071,3.071,0,0,0,0,4.518,3.2,3.2,0,0,1,.887,3.3,3.058,3.058,0,0,0,.273,2.45A3.1,3.1,0,0,0,12.263,27.5a3.037,3.037,0,0,1,.935.382l-5.863,10.2a.887.887,0,0,0,.88,1.324l3.754-.464,1.5,3.474a.88.88,0,0,0,.764.539h.048a.9.9,0,0,0,.778-.45l5.815-10.163a3.112,3.112,0,0,1,1,.723,3.071,3.071,0,0,0,4.518,0,3.112,3.112,0,0,1,1-.724L33.2,42.5a.9.9,0,0,0,.778.45h.048a.88.88,0,0,0,.764-.539l1.5-3.474,3.754.464a.887.887,0,0,0,.88-1.324ZM14.4,40.072l-1.058-2.45a.9.9,0,0,0-.928-.532L9.8,37.417,14.433,29.3a2.983,2.983,0,0,1,.225.642A3.071,3.071,0,0,0,18.569,32.2a3.113,3.113,0,0,1,.4-.1Zm10.682-8.19a1.324,1.324,0,0,1-1.9,0,5,5,0,0,0-3.672-1.6,4.907,4.907,0,0,0-1.467.225,1.3,1.3,0,0,1-1.652-.949,4.989,4.989,0,0,0-3.761-3.768,1.235,1.235,0,0,1-.833-.614,1.27,1.27,0,0,1-.116-1.031A5,5,0,0,0,10.317,19a1.29,1.29,0,0,1,0-1.9,5.017,5.017,0,0,0,1.365-5.146,1.3,1.3,0,0,1,.949-1.645,4.983,4.983,0,0,0,3.761-3.761A1.283,1.283,0,0,1,18.044,5.6a5,5,0,0,0,5.14-1.365,1.317,1.317,0,0,1,1.9,0A5,5,0,0,0,30.22,5.6a1.283,1.283,0,0,1,1.652.949,4.983,4.983,0,0,0,3.761,3.761,1.3,1.3,0,0,1,.949,1.645A5.017,5.017,0,0,0,37.947,17.1a1.29,1.29,0,0,1,0,1.9,5,5,0,0,0-1.365,5.14,1.27,1.27,0,0,1-.116,1.031,1.235,1.235,0,0,1-.833.614,4.989,4.989,0,0,0-3.761,3.768,1.3,1.3,0,0,1-1.652.949,4.907,4.907,0,0,0-2.512-.1h-.075a5,5,0,0,0-2.553,1.454Zm10.771,5.235a.908.908,0,0,0-.928.532L33.865,40.1l-4.573-7.993a1.5,1.5,0,0,1,.4.1,3.071,3.071,0,0,0,3.911-2.259,2.983,2.983,0,0,1,.225-.642L38.5,37.444Z" transform="translate(0 0)" fill="#f85200" stroke="#f85200" stroke-width="0.6"/>
  </g>
</svg>
