<svg xmlns="http://www.w3.org/2000/svg" width="42.546" height="30.913" viewBox="0 0 42.546 30.913">
  <path id="delivery" d="M22.416,15.971a.844.844,0,0,0-.577.253l-4.384,4.371-2.7-2.692c-.756-.788-1.978.429-1.188,1.183l3.3,3.287a.842.842,0,0,0,1.188,0l4.977-4.964a.841.841,0,0,0-.61-1.437ZM37.406,27.6a4.155,4.155,0,1,0,4.155,4.155A4.167,4.167,0,0,0,37.406,27.6Zm0,1.662a2.493,2.493,0,1,1-2.493,2.493A2.481,2.481,0,0,1,37.406,29.266ZM15.8,27.6a4.155,4.155,0,1,0,4.155,4.155A4.167,4.167,0,0,0,15.8,27.6Zm0,1.662a2.493,2.493,0,1,1-2.493,2.493A2.481,2.481,0,0,1,15.8,29.266ZM7.493,6A2.507,2.507,0,0,0,5,8.493v18.28a2.507,2.507,0,0,0,2.493,2.493h3.324a.831.831,0,1,0,0-1.662H7.493a.811.811,0,0,1-.831-.831V8.493a.811.811,0,0,1,.831-.831H29.1a.811.811,0,0,1,.831.831V27.6h-9.14a.831.831,0,0,0,0,1.662H32.42a.831.831,0,0,0,0-1.662H31.59V12.647h7.025l6.27,9.8v4.327a.811.811,0,0,1-.831.831H42.391a.831.831,0,0,0,0,1.662h1.662a2.507,2.507,0,0,0,2.493-2.493V22.2a.84.84,0,0,0-.13-.449L39.769,11.368a.832.832,0,0,0-.7-.382H31.59V8.493A2.507,2.507,0,0,0,29.1,6Z" transform="translate(-4.5 -5.5)" fill="#f85200" stroke="#f85200" stroke-width="1"/>
</svg>
