<svg xmlns="http://www.w3.org/2000/svg" width="35.22" height="34.749" viewBox="0 0 35.22 34.749">
  <g id="feedback-5010529" transform="translate(0.35 0.35)">
    <path id="Path_368" data-name="Path 368" d="M16.634,22.068h-.986a.724.724,0,0,1-.69-.5l-.3-.937h0a2.051,2.051,0,0,0-3.9,0l-.3.936a.724.724,0,0,1-.69.5H8.772a2.051,2.051,0,0,0-1.2,3.709l.8.575a.727.727,0,0,1,.264.814l-.3.936a2.05,2.05,0,0,0,3.154,2.292l.8-.575a.725.725,0,0,1,.855,0l.8.575A2.05,2.05,0,0,0,17.083,28.1l-.3-.938a.725.725,0,0,1,.263-.812l.8-.575a2.051,2.051,0,0,0-1.206-3.708Zm.239,2.379-.8.579a2.365,2.365,0,0,0-.861,2.65l.3.938a.406.406,0,0,1-.625.453l-.8-.575a2.365,2.365,0,0,0-2.786,0l-.8.575a.407.407,0,0,1-.625-.455l.3-.936a2.367,2.367,0,0,0-.859-2.651l-.8-.575a.407.407,0,0,1,.238-.736h.986a2.366,2.366,0,0,0,2.254-1.638l.3-.937a.406.406,0,0,1,.773,0l.3.937a2.366,2.366,0,0,0,2.254,1.638h.986a.406.406,0,0,1,.239.735Z" transform="translate(-3.663 -5.989)" fill="#f85200" stroke="#f85200" stroke-width="0.7"/>
    <path id="Path_369" data-name="Path 369" d="M36.636,22.6h-.986a.723.723,0,0,1-.69-.5l-.3-.937h0a2.055,2.055,0,0,0-3.9,0l-.3.937a.723.723,0,0,1-.69.5h-.986a2.055,2.055,0,0,0-1.2,3.71l.8.575a.725.725,0,0,1,.264.813l-.3.938a2.05,2.05,0,0,0,3.155,2.291l.8-.575a.725.725,0,0,1,.855,0l.8.58a2.05,2.05,0,0,0,3.154-2.291l-.3-.939a.723.723,0,0,1,.263-.811l.8-.575A2.055,2.055,0,0,0,36.634,22.6Zm.239,2.379-.8.58a2.365,2.365,0,0,0-.861,2.649l.3.938a.406.406,0,0,1-.625.455l-.8-.58a2.367,2.367,0,0,0-2.786,0l-.8.575a.406.406,0,0,1-.625-.455l.3-.937a2.366,2.366,0,0,0-.859-2.646l-.8-.575a.411.411,0,0,1,.239-.736h.986A2.365,2.365,0,0,0,32.018,22.6l.3-.936a.406.406,0,0,1,.773,0l.3.937a2.365,2.365,0,0,0,2.254,1.637h.986a.406.406,0,0,1,.239.735Z" transform="translate(-7.226 -6.084)" fill="#f85200" stroke="#f85200" stroke-width="0.7"/>
    <path id="Path_370" data-name="Path 370" d="M37.52,13.879a4.114,4.114,0,0,0-4.11-4.11H26.692A2.231,2.231,0,0,0,24.773,6.4H23.641a.954.954,0,0,1-.909-.658l-.349-1.077a2.232,2.232,0,0,0-4.246,0l-.349,1.076a.954.954,0,0,1-.909.658H15.747a2.231,2.231,0,0,0-1.919,3.37H7.11A4.114,4.114,0,0,0,3,13.878V28.673a4.114,4.114,0,0,0,4.11,4.11h6.575a2.5,2.5,0,0,1,1.973.986l1.315,1.761a4.11,4.11,0,0,0,6.575,0l1.315-1.756a2.5,2.5,0,0,1,1.973-.986H33.41a4.114,4.114,0,0,0,4.11-4.11ZM15.188,8.447a.57.57,0,0,1,.559-.406h1.132a2.594,2.594,0,0,0,2.472-1.8L19.7,5.168a.588.588,0,0,1,1.119,0l.349,1.076a2.594,2.594,0,0,0,2.472,1.8h1.132a.588.588,0,0,1,.345,1.068l-.916.665a2.6,2.6,0,0,0-.944,2.906l.35,1.076a.588.588,0,0,1-.9.658l-.916-.665a2.592,2.592,0,0,0-3.056,0l-.915.665a.588.588,0,0,1-.9-.658l.35-1.076a2.6,2.6,0,0,0-.949-2.91L15.4,9.108A.57.57,0,0,1,15.188,8.447ZM35.876,28.674a2.466,2.466,0,0,1-2.466,2.466H26.835a4.155,4.155,0,0,0-3.288,1.644l-1.315,1.759a2.466,2.466,0,0,1-3.945,0l-1.315-1.767a4.152,4.152,0,0,0-3.288-1.639H7.11A2.466,2.466,0,0,1,4.644,28.67V13.876A2.466,2.466,0,0,1,7.11,11.41h8.5a.944.944,0,0,1,.082.758l-.349,1.076a2.232,2.232,0,0,0,3.434,2.5l.915-.666a.958.958,0,0,1,1.124,0l.915.666a2.232,2.232,0,0,0,3.435-2.5l-.349-1.076a.944.944,0,0,1,.082-.758H33.41a2.466,2.466,0,0,1,2.466,2.466Z" transform="translate(-3 -3.124)" fill="#f85200" stroke="#f85200" stroke-width="0.7"/>
  </g>
</svg>
