<svg xmlns="http://www.w3.org/2000/svg" width="30" height="5.344" viewBox="0 0 30 5.344">
  <path id="Path_54" data-name="Path 54" d="M16.3,13.975c-.142-.181-.938-.086-1.3-.043-.108.013-.125-.082-.028-.15a1.994,1.994,0,0,1,1.8-.168,1.967,1.967,0,0,1-.627,1.69c-.091.077-.178.036-.138-.065.134-.334.434-1.082.292-1.264ZM15.03,10.633V10.2a.107.107,0,0,1,.11-.11h1.94a.109.109,0,0,1,.113.11v.37c0,.063-.053.144-.146.273L16.04,12.28a2.157,2.157,0,0,1,1.107.238.2.2,0,0,1,.1.169v.462a.1.1,0,0,1-.143.1,2.236,2.236,0,0,0-2.05,0c-.068.036-.139-.037-.139-.1v-.44a.519.519,0,0,1,.072-.3l1.165-1.672H15.141a.108.108,0,0,1-.112-.11Zm-7.081,2.7H7.358a.111.111,0,0,1-.106-.1v-3.03a.113.113,0,0,1,.115-.11h.55a.111.111,0,0,1,.107.1v.4h.011a.811.811,0,0,1,1.544,0,.873.873,0,0,1,1.5-.23,1.608,1.608,0,0,1,.15.951v1.913a.113.113,0,0,1-.114.11h-.59a.11.11,0,0,1-.106-.11V11.622a3.953,3.953,0,0,0-.017-.567.308.308,0,0,0-.347-.262.392.392,0,0,0-.353.249,1.85,1.85,0,0,0-.055.58v1.607a.113.113,0,0,1-.114.11h-.59a.11.11,0,0,1-.106-.11V11.622c0-.338.055-.835-.364-.835s-.408.485-.408.835v1.607a.113.113,0,0,1-.114.11Zm10.92-2.685c-.435,0-.463.593-.463.963s0,1.16.458,1.16.48-.637.48-1.026a2.816,2.816,0,0,0-.089-.8A.369.369,0,0,0,18.869,10.653Zm0-.619c.876,0,1.35.753,1.35,1.71,0,.924-.523,1.658-1.35,1.658-.86,0-1.329-.753-1.329-1.69s.474-1.678,1.329-1.678Zm2.487,3.3h-.588a.11.11,0,0,1-.106-.109V10.2a.112.112,0,0,1,.113-.1h.548a.112.112,0,0,1,.1.085v.463h.011a.8.8,0,0,1,.805-.612.777.777,0,0,1,.69.357,1.944,1.944,0,0,1,.153.944v1.908a.112.112,0,0,1-.113.1h-.592a.111.111,0,0,1-.1-.095V11.6c0-.332.039-.817-.37-.817a.387.387,0,0,0-.341.243,1.343,1.343,0,0,0-.094.574v1.632a.113.113,0,0,1-.115.11Zm-7.274-.007a.122.122,0,0,1-.139.013,1.438,1.438,0,0,1-.338-.393,1.173,1.173,0,0,1-.974.43.839.839,0,0,1-.884-.921,1,1,0,0,1,.63-.966,4.09,4.09,0,0,1,1.11-.2v-.077a.755.755,0,0,0-.072-.428.394.394,0,0,0-.331-.154.451.451,0,0,0-.475.355.125.125,0,0,1-.1.109l-.573-.062a.1.1,0,0,1-.088-.124,1.191,1.191,0,0,1,1.3-.9h.044a1.335,1.335,0,0,1,.87.294c.287.269.259.626.259,1.017v.92a.807.807,0,0,0,.223.547.111.111,0,0,1,0,.157c-.12.1-.335.287-.453.392h0Zm-.6-1.44a1.156,1.156,0,0,1-.11.626.481.481,0,0,1-.41.269c-.226,0-.358-.173-.358-.429,0-.5.451-.594.878-.594v.128Zm-7.146,1.44a.122.122,0,0,1-.14.013,1.438,1.438,0,0,1-.338-.393,1.173,1.173,0,0,1-.974.43A.839.839,0,0,1,4,12.46a1,1,0,0,1,.63-.966,4.09,4.09,0,0,1,1.11-.2v-.077a.755.755,0,0,0-.072-.428.393.393,0,0,0-.331-.154.451.451,0,0,0-.475.355.125.125,0,0,1-.1.109l-.573-.062a.1.1,0,0,1-.088-.124A1.19,1.19,0,0,1,5.4,10H5.44a1.335,1.335,0,0,1,.87.294c.287.269.259.626.259,1.017v.92a.807.807,0,0,0,.223.547.112.112,0,0,1,0,.157c-.12.1-.335.287-.453.392h0Zm-.6-1.44a1.156,1.156,0,0,1-.11.626.481.481,0,0,1-.41.269c-.226,0-.358-.173-.358-.429,0-.5.451-.594.878-.594v.128Zm25.415,2.534V14.2c0-.063.03-.107.1-.1a1.422,1.422,0,0,0,.422.01.49.49,0,0,0,.346-.306c.1-.222.161-.4.2-.517l-1.228-3.044c-.02-.052-.027-.147.076-.147h.43a.133.133,0,0,1,.133.1l.89,2.472.851-2.472a.134.134,0,0,1,.134-.1h.4c.1,0,.1.1.076.147l-1.219,3.139c-.157.418-.368,1.083-.84,1.2a1.246,1.246,0,0,1-.713-.034.141.141,0,0,1-.061-.122Zm-.573-1.272a.1.1,0,0,1-.1.1h-.3a.118.118,0,0,1-.118-.1l-.03-.207a1.77,1.77,0,0,1-.5.294,1.246,1.246,0,0,1-1.115-.053.888.888,0,0,1-.385-.768.94.94,0,0,1,.24-.653,1.208,1.208,0,0,1,.922-.354,2.882,2.882,0,0,1,.807.107V11.1c0-.422-.178-.6-.646-.6a3.147,3.147,0,0,0-1.013.172.093.093,0,0,1-.1-.1v-.237a.149.149,0,0,1,.1-.129A3.08,3.08,0,0,1,29.413,10c.534,0,1.169.12,1.169.942v2.21ZM30,12.547v-.626a3.239,3.239,0,0,0-.67-.079.775.775,0,0,0-.549.176.517.517,0,0,0-.127.354.474.474,0,0,0,.192.417.783.783,0,0,0,.627.028,1.376,1.376,0,0,0,.527-.27Zm-3.884-2.038c.672,0,.855.528.855,1.133a1.361,1.361,0,0,1-.282.98.764.764,0,0,1-.6.2,1.455,1.455,0,0,1-.781-.3V10.8a1.39,1.39,0,0,1,.808-.286ZM25.2,14.534H24.8a.1.1,0,0,1-.1-.1V10.2a.1.1,0,0,1,.1-.1h.31a.119.119,0,0,1,.119.1l.033.222A1.589,1.589,0,0,1,26.283,10c1,0,1.327.823,1.327,1.68,0,.915-.5,1.651-1.352,1.651a1.424,1.424,0,0,1-.95-.361v1.46a.1.1,0,0,1-.1.1Z" transform="translate(-4 -10)" fill="#fff" fill-rule="evenodd"/>
</svg>
