<svg xmlns="http://www.w3.org/2000/svg" width="23.119" height="9.54" viewBox="0 0 23.119 9.54">
  <path id="Path_56" data-name="Path 56" d="M11.66,8.47a1.39,1.39,0,0,1-1.14.54,1.64,1.64,0,0,1,.41-1.18,1.69,1.69,0,0,1,1.13-.58A1.725,1.725,0,0,1,11.66,8.47Zm.39.63a9.312,9.312,0,0,0-1.46.36c-.3,0-.76-.34-1.26-.33a1.85,1.85,0,0,0-1.58.95,4,4,0,0,0,.48,3.85c.32.47.71,1,1.21,1s.67-.31,1.25-.31.75.31,1.26.3.85-.47,1.17-.94a3.989,3.989,0,0,0,.53-1.08,1.7,1.7,0,0,1-1-1.55,1.74,1.74,0,0,1,.82-1.45,1.78,1.78,0,0,0-1.4-.76l-.02-.04ZM15.7,7.83v7h1.1V12.42h1.51a2.23,2.23,0,0,0,2.35-2.32,2.2,2.2,0,0,0-2.31-2.31l-2.65.04Zm1.1.92H18a1.32,1.32,0,0,1,1.49,1.4,1.322,1.322,0,0,1-1.5,1.4H16.78l.02-2.8Zm5.86,6.18a1.79,1.79,0,0,0,1.61-.9v.84h1v-3.5c0-1-.81-1.68-2.07-1.68a1.84,1.84,0,0,0-2,1.58h1a1,1,0,0,1,1-.72c.67,0,1,.31,1,.89v.39l-1.37.08c-1.27.08-2,.6-2,1.5a1.55,1.55,0,0,0,1.81,1.48l.02.04Zm.3-.84c-.59,0-1-.28-1-.71s.36-.7,1-.74l1.22-.08v.4a1.19,1.19,0,0,1-1.24,1.09Zm3.7,2.7c1.07,0,1.57-.41,2-1.64l1.92-5.39H29.46l-1.29,4.16L26.88,9.76H25.71l1.86,5.13-.1.31a.88.88,0,0,1-.92.74h-.32v.84a2.818,2.818,0,0,0,.41-.03Z" transform="translate(-7.461 -7.25)" fill="#fff"/>
</svg>
