<svg xmlns="http://www.w3.org/2000/svg" width="21.88" height="7.12" viewBox="0 0 21.88 7.12">
  <path id="Path_67" data-name="Path 67" d="M15.76,8.56l-2.87,6.89H11L9.61,10a.75.75,0,0,0-.42-.61A7.69,7.69,0,0,0,7.45,8.8V8.6h3a.84.84,0,0,1,.82.71l.74,4,1.84-4.69,1.91-.06Zm7.33,4.64c0-1.81-2.5-1.91-2.48-2.73,0-.24.24-.51.75-.57a3.32,3.32,0,0,1,1.75.3l.31-1.46a4.93,4.93,0,0,0-1.66-.3c-1.75,0-3,.93-3,2.28,0,1,.88,1.54,1.55,1.87s.92.56.92.86c0,.46-.55.66-1.06.67a3.659,3.659,0,0,1-1.82-.43L18,15.2a5.407,5.407,0,0,0,2,.36c1.86,0,3.07-.92,3.08-2.36h.01Zm4.61,2.25h1.63L27.91,8.56h-1.5a.82.82,0,0,0-.76.51L23,15.45h1.86l.36-1h2.27l.21,1Zm-2-2.44.94-2.58L27.2,13ZM18.26,8.56,16.8,15.45H15.06l1.46-6.89h1.74Z" transform="translate(-7.45 -8.44)" fill="#fff"/>
</svg>
