<svg xmlns="http://www.w3.org/2000/svg" width="26.541" height="7.09" viewBox="0 0 26.541 7.09">
  <path id="Path_61" data-name="Path 61" d="M10.42,9a1.88,1.88,0,0,0-1.5-.53H6.85a.28.28,0,0,0-.28.24L5.73,14a.18.18,0,0,0,.17.2h1a.28.28,0,0,0,.27-.2l.23-1.44a.28.28,0,0,1,.28-.24h.65a2.12,2.12,0,0,0,2.35-2A1.582,1.582,0,0,0,10.42,9ZM9.15,10.39c-.11.74-.68.74-1.22.74H7.62l.21-1.39A.18.18,0,0,1,8,9.59h.15c.37,0,.72,0,.9.22a.68.68,0,0,1,.1.58Zm5.94,0h-1a.162.162,0,0,0-.154.09.157.157,0,0,0-.016.06v.28l-.07-.1a1.37,1.37,0,0,0-1.16-.42,2.27,2.27,0,0,0-2.21,2,1.91,1.91,0,0,0,.37,1.53,1.53,1.53,0,0,0,1.24.51,1.887,1.887,0,0,0,1.37-.57v.27a.17.17,0,0,0,.17.2h.89A.28.28,0,0,0,14.8,14l.53-3.41a.17.17,0,0,0-.24-.23v.03ZM13.71,12.3a1.11,1.11,0,0,1-1.12.95.819.819,0,0,1-.66-.27.858.858,0,0,1-.16-.7,1.12,1.12,0,0,1,1.11-1,.83.83,0,0,1,.66.28.86.86,0,0,1,.17.74Zm6.64-1.94h-1a.281.281,0,0,0-.24.13l-1.37,2-.58-1.95a.3.3,0,0,0-.28-.21h-1a.18.18,0,0,0-.17.23l1.1,3.24-1,1.46a.17.17,0,0,0,.14.27h1a.289.289,0,0,0,.24-.12l3.3-4.81a.17.17,0,0,0-.14-.24ZM25.14,9a1.88,1.88,0,0,0-1.5-.53H21.57a.28.28,0,0,0-.28.24L20.46,14a.168.168,0,0,0,.037.14.17.17,0,0,0,.133.06h1.06a.19.19,0,0,0,.19-.17l.24-1.51a.28.28,0,0,1,.28-.24h.66a2.129,2.129,0,0,0,2.35-2A1.611,1.611,0,0,0,25.14,9Zm-1.26,1.42c-.12.74-.68.74-1.23.74h-.31l.22-1.39a.158.158,0,0,1,.053-.11.16.16,0,0,1,.117-.04h.14c.37,0,.73,0,.91.22a.682.682,0,0,1,.1.55Zm5.93,0h-1a.17.17,0,0,0-.17.15v.28l-.07-.1a1.39,1.39,0,0,0-1.17-.42,2.29,2.29,0,0,0-2.21,2,1.91,1.91,0,0,0,.37,1.53,1.54,1.54,0,0,0,1.25.51,1.887,1.887,0,0,0,1.37-.57v.27a.17.17,0,0,0,.17.2h.89a.28.28,0,0,0,.28-.24L30,10.56a.182.182,0,0,0-.049-.144.18.18,0,0,0-.141-.056ZM28.43,12.3a1.09,1.09,0,0,1-1.11.95.83.83,0,0,1-.67-.27.848.848,0,0,1-.15-.7,1.11,1.11,0,0,1,1.1-1,.8.8,0,0,1,.83,1ZM32.1,8.44h-1a.18.18,0,0,0-.17.14L30.13,14a.168.168,0,0,0,.038.14.17.17,0,0,0,.132.06h.85a.28.28,0,0,0,.28-.24l.84-5.33a.179.179,0,0,0-.17-.19Z" transform="translate(-5.729 -8.44)" fill="#fff"/>
</svg>
