<svg xmlns="http://www.w3.org/2000/svg" width="1662.131" height="165.531" viewBox="0 0 1662.131 165.531">
  <path id="Subtraction_25" data-name="Subtraction 25" d="M-2353.007-556.2h-1660V-679.408c34.264-2.026,89.94-4.954,160.6-7.4,85.2-2.951,170.152-4.447,252.5-4.447,86.522,0,170.117,1.67,248.462,4.964,44.242,1.86,87.54,4.272,128.69,7.168,44.18,3.11,87.056,6.861,127.437,11.15,49.583,5.266,100.19,9.216,150.416,11.741,45.888,2.307,92.5,3.477,138.528,3.479h.058c54.665,0,109.746-1.644,163.713-4.887,45.188-2.715,90.093-6.578,133.467-11.48,34.043-3.848,67.083-8.324,98.2-13.3,26.441-4.231,46.092-7.968,57.921-10.357V-556.2Z" transform="matrix(1, -0.017, 0.017, 1, 4024.487, 651.612)" fill="#f8ca36"/>
</svg>
