<svg xmlns="http://www.w3.org/2000/svg" xmlns:xlink="http://www.w3.org/1999/xlink" width="30" height="7.206" viewBox="0 0 30 7.206">
  <defs>
    <clipPath id="clip-path">
      <path id="Path_65" data-name="Path 65" d="M0,0H30V7.206H0Z" transform="translate(4 8.88)" fill="#fff"/>
    </clipPath>
  </defs>
  <g id="Group_188" data-name="Group 188" transform="translate(-4 -8.88)" clip-path="url(#clip-path)">
    <path id="Path_63" data-name="Path 63" d="M11.686,11.147a1.432,1.432,0,0,0-1.384-.831,1.38,1.38,0,0,0-1.083.556l-.025.03V8.926a.043.043,0,0,0-.043-.043H8.179a.043.043,0,0,0-.042.043V14.6a.042.042,0,0,0,.042.043h1.04a.043.043,0,0,0,.043-.042v-2.42a.766.766,0,0,1,.816-.8c.549,0,.688.452.688.912V14.6a.042.042,0,0,0,.042.043h1.038a.043.043,0,0,0,.043-.043V12.15a1.983,1.983,0,0,0-.01-.245,2.163,2.163,0,0,0-.193-.757Zm-5.2.841s-.53-.125-.725-.175-.536-.157-.536-.415.276-.34.555-.34.589.068.613.377a.045.045,0,0,0,.045.04l1.026,0a.044.044,0,0,0,.044-.047c-.064-.99-.933-1.345-1.735-1.345A1.509,1.509,0,0,0,4.129,11.4c0,.505.143.978,1.265,1.308.2.057.464.131.7.2.28.079.432.2.432.384,0,.216-.314.366-.622.366-.446,0-.762-.165-.788-.462a.045.045,0,0,0-.045-.04l-1.023.005A.046.046,0,0,0,4,13.2a1.665,1.665,0,0,0,1.792,1.439c1.254,0,1.82-.706,1.82-1.366a1.262,1.262,0,0,0-1.124-1.287Zm13.2-1.674a1.621,1.621,0,0,0-1.239.637v-.6a.041.041,0,0,0-.042-.042h-.973a.043.043,0,0,0-.042.042V15.92a.052.052,0,0,0,.012.03.042.042,0,0,0,.03.011h1.042a.041.041,0,0,0,.041-.041V14.09h.016a1.489,1.489,0,0,0,1.209.555,2.084,2.084,0,0,0,2.037-2.167,2.117,2.117,0,0,0-2.09-2.164Zm-.1,3.27a1.1,1.1,0,1,1,1.077-1.106,1.092,1.092,0,0,1-1.077,1.107ZM14.307,10.07a2.9,2.9,0,0,0-1.844.594l-.012.008a.1.1,0,0,0-.029.127l.384.662a.1.1,0,0,0,.147.026l.03-.025a2.056,2.056,0,0,1,1.3-.453,1.37,1.37,0,0,1,1.08.335,1.657,1.657,0,0,1,.483,1.206A1.3,1.3,0,0,1,14.5,13.986c-.683,0-1.141-.36-1.141-.886a.751.751,0,0,1,.372-.642.1.1,0,0,0,.03-.122l-.346-.652a.1.1,0,0,0-.06-.05.1.1,0,0,0-.078.011,1.559,1.559,0,0,0-.837,1.457,1.956,1.956,0,0,0,2,1.844h.131a2.28,2.28,0,0,0,2.273-2.351,2.48,2.48,0,0,0-2.533-2.525Zm11.575.627h-.661a.06.06,0,0,0-.059.059v1.388a.055.055,0,0,0,.018.04.052.052,0,0,0,.04.018h.662a.754.754,0,0,0,0-1.505Zm2.032,2.455c0,.2.17.314.466.314a.568.568,0,0,0,.641-.6V12.75l-.6.032c-.318.015-.5.148-.5.37Z" fill="#fff"/>
    <path id="Path_64" data-name="Path 64" d="M32.813,8.894H23.925A1.11,1.11,0,0,0,22.815,10V14.87a1.11,1.11,0,0,0,1.11,1.111h8.888a1.112,1.112,0,0,0,1.114-1.11V10.006a1.111,1.111,0,0,0-1.114-1.112Zm-6.9,3.854h-.7a.059.059,0,0,0-.058.059v1a.058.058,0,0,1-.059.059h-.492a.06.06,0,0,1-.059-.059v-3.59a.059.059,0,0,1,.059-.06h1.309a1.238,1.238,0,0,1,1.272,1.3,1.234,1.234,0,0,1-1.268,1.3h0ZM29.6,13.8a.058.058,0,0,1-.017.042.061.061,0,0,1-.042.018h-.465a.059.059,0,0,1-.059-.06v-.107a.044.044,0,0,0-.078-.031.928.928,0,0,1-.724.261c-.53,0-.88-.275-.88-.752a.7.7,0,0,1,.291-.6,1.656,1.656,0,0,1,.927-.235l.467-.016v-.136c0-.275-.185-.392-.482-.392s-.485.1-.529.277a.057.057,0,0,1-.056.04h-.46a.058.058,0,0,1-.045-.02.057.057,0,0,1-.014-.046c.07-.408.406-.717,1.125-.717.763,0,1.038.355,1.038,1.033l0,1.44Zm2.895-2.329-1.035,2.76a1.07,1.07,0,0,1-1.1.805.875.875,0,0,1-.252-.03.061.061,0,0,1-.045-.058v-.42a.061.061,0,0,1,.021-.046.06.06,0,0,1,.05-.012,1.2,1.2,0,0,0,.216.02.558.558,0,0,0,.562-.4l.03-.1a.059.059,0,0,0,0-.04l-.967-2.484a.06.06,0,0,1,.056-.079h.47a.06.06,0,0,1,.056.038l.657,1.753a.061.061,0,0,0,.022.029.059.059,0,0,0,.09-.029l.57-1.748a.057.057,0,0,1,.057-.04h.482a.066.066,0,0,1,.027.006.049.049,0,0,1,.02.018.06.06,0,0,1,.01.053v0Z" fill="#fff"/>
  </g>
</svg>
