<svg xmlns="http://www.w3.org/2000/svg" width="1123.688" height="89.776" viewBox="0 0 1123.688 89.776">
  <path id="Path_434" data-name="Path 434" d="M-571.02,0h23.436c22.568,0,37.2-15.128,37.2-43.152,0-28.272-14.26-43.648-36.456-43.648h-24.18Zm23.312-71.176c11.656,0,18.352,8.308,18.352,28.024,0,19.344-6.7,27.776-18.352,27.776h-4.464v-55.8ZM-505.176,0h18.724V-86.8h-18.724Zm53.444,1.364c16.616,0,27.032-10.416,27.032-25.048,0-16.74-12.524-22.568-23.188-27.652-8.06-3.844-15-7.192-15-14.136,0-4.588,2.852-7.564,8.308-7.564,6.7,0,10.54,4.96,11.408,14.508h17.236c-1.24-19.344-12.028-29.636-29.14-29.636-16,0-26.04,9.8-26.04,24.18,0,16.74,12.9,22.444,23.684,27.528,7.812,3.72,14.632,7.068,14.632,14.384,0,4.712-3.348,8.432-9.548,8.432-7.44,0-10.912-4.836-11.532-16h-17.732C-480.624-9.548-470.332,1.364-451.732,1.364ZM-359.6-50.964c-1.736-24.552-13.02-37.324-30.38-37.324-19.592,0-31.248,15.252-31.248,44.888S-409.572,1.488-389.98,1.488c17.608,0,28.768-13.268,30.38-38.564h-17.98c-.992,15.748-5.208,22.816-12.276,22.816-8.06,0-12.4-8.8-12.4-29.14s4.34-29.14,12.4-29.14c6.82,0,11.036,6.7,12.152,21.576Zm35.712,52.452c19.716,0,31.62-15.252,31.62-44.888s-11.9-44.888-31.62-44.888c-19.84,0-31.744,15.252-31.744,44.888S-343.728,1.488-323.888,1.488Zm0-15.748c-8.308,0-12.772-8.8-12.772-29.14s4.464-29.14,12.772-29.14c8.184,0,12.648,8.8,12.648,29.14S-315.7-14.26-323.888-14.26Zm96.72-72.54H-245.52l-7.192,32.984L-259.9-20.708-267.1-53.816-274.288-86.8H-293.88L-272.3,0h23.56ZM-224.44,0h51.708V-15.128h-32.86v-22.2h24.8V-52.452h-24.8V-71.424h32.86V-86.8H-224.44Zm56.916,0h18.848V-35.464h11.16c5.208,0,7.316,2.976,7.44,8.928,0,15.252,0,21.948,2.852,26.536h19.1c-3.348-7.44-3.224-16.244-3.348-24.924-.124-8.432-1.612-15-9.424-17.98,7.44-3.968,11.408-11.284,11.408-20.212,0-14.26-9.8-23.684-27.156-23.684h-30.876Zm29.016-71.672c6.572,0,10.54,3.72,10.54,10.788S-132.06-50.1-138.508-50.1h-10.168V-71.672ZM-65.224,0h18.848V-71.424H-25.3V-86.8H-86.18v15.376h20.956ZM-21.2,0H-2.356V-37.324H17.856V0H36.7V-86.8H17.856v34.1H-2.356V-86.8H-21.2ZM43.152,0H94.86V-15.128H62v-22.2H86.8V-52.452H62V-71.424H94.86V-86.8H43.152Zm109.74,1.488c19.716,0,31.62-15.252,31.62-44.888s-11.9-44.888-31.62-44.888c-19.84,0-31.744,15.252-31.744,44.888S133.052,1.488,152.892,1.488Zm0-15.748c-8.308,0-12.772-8.8-12.772-29.14s4.464-29.14,12.772-29.14c8.184,0,12.648,8.8,12.648,29.14S161.076-14.26,152.892-14.26ZM189.72,0h18.848V-35.464h11.16c5.208,0,7.316,2.976,7.44,8.928,0,15.252,0,21.948,2.852,26.536h19.1c-3.348-7.44-3.224-16.244-3.348-24.924-.124-8.432-1.612-15-9.424-17.98,7.44-3.968,11.408-11.284,11.408-20.212,0-14.26-9.8-23.684-27.156-23.684H189.72Zm29.016-71.672c6.572,0,10.54,3.72,10.54,10.788S225.184-50.1,218.736-50.1H208.568V-71.672ZM253.456,0H272.18V-86.8H253.456ZM323.02,0h16.368V-48.856H308.636v14.632h13.888c-1.364,13.888-6.076,20.088-13.268,20.088-8.432,0-12.9-8.68-12.9-29.264,0-20.46,4.34-29.264,12.648-29.264,6.324,0,10.664,5.456,11.9,16.988h18.1c-2.232-21.452-13.392-32.612-30.132-32.612-19.84,0-31.5,15.128-31.5,44.888,0,29.264,10.54,44.516,27.652,44.516,7.812,0,13.888-4.092,17.98-12.028Zm48.236,0h15.872L387-28.024l-.372-28.148L397.3-28.024,408.208,0H429.04V-86.8H413.292l.124,28.272.248,28.644L402.876-58.528,391.964-86.8H371.256Zm60.512,0H450l4.092-18.228h20.956L479.012,0H498.48L476.9-86.8h-23.56Zm25.668-33.48L464.5-67.208,471.7-33.48l.248.992H457.188ZM501.208,0h51.46V-15.252H520.056V-86.8H501.208Z" transform="translate(571.02 88.288)" fill="#fff"/>
</svg>
