<svg xmlns="http://www.w3.org/2000/svg" width="11.21" height="11.21" viewBox="0 0 11.21 11.21">
  <path id="Path_157" data-name="Path 157" d="M30.54,19.694a2,2,0,0,1,0,2.837l-5.906,5.906a3.137,3.137,0,0,1-1.547.848l-2.15.473a.425.425,0,0,1-.506-.506L20.9,27.1a3.137,3.137,0,0,1,.848-1.547l3.664-3.665a.425.425,0,0,1,.6.6l-3.664,3.665a2.292,2.292,0,0,0-.619,1.129l-.331,1.5,1.5-.33a2.3,2.3,0,0,0,1.077-.567l.052-.051,5.906-5.906a1.156,1.156,0,0,0,0-1.635l-.046-.046a1.156,1.156,0,0,0-1.635,0l-.828.828.007.007q.386.381.749.743l.144.143a.425.425,0,0,1-.6.6q-.569-.568-1.2-1.188a.424.424,0,0,1,0-.6l1.131-1.131a2,2,0,0,1,2.837,0Z" transform="translate(-20.168 -18.81)" fill="#f8ca36" stroke="#f8ca36" stroke-width="0.5"/>
</svg>
