<svg xmlns="http://www.w3.org/2000/svg" width="25" height="25" viewBox="0 0 25 25">
  <g id="Group_423" data-name="Group 423" transform="translate(-125.177 -482.177)">
    <circle id="Ellipse_12" data-name="Ellipse 12" cx="12.5" cy="12.5" r="12.5" transform="translate(125.177 482.177)" fill="#fff"/>
    <g id="pen" transform="translate(132.244 488.036)">
      <path id="Path_157" data-name="Path 157" d="M31.6,19.76a2.215,2.215,0,0,1,0,3.134L25.076,29.42a3.466,3.466,0,0,1-1.709.936l-2.376.523a.47.47,0,0,1-.56-.56l.523-2.376a3.467,3.467,0,0,1,.936-1.709l4.049-4.049a.469.469,0,0,1,.664.664L22.554,26.9a2.533,2.533,0,0,0-.683,1.247L21.506,29.8l1.659-.364a2.538,2.538,0,0,0,1.189-.627l.058-.056,6.525-6.525a1.277,1.277,0,0,0,0-1.807l-.051-.051a1.277,1.277,0,0,0-1.807,0l-.915.914.008.008q.427.421.827.821l.159.158a.469.469,0,0,1-.664.664q-.629-.628-1.326-1.313a.469.469,0,0,1,0-.667l1.25-1.25a2.215,2.215,0,0,1,3.134,0Z" transform="translate(-20.42 -19.06)" fill="#151820" stroke="#151820" stroke-width="0.3"/>
    </g>
  </g>
</svg>
