<svg xmlns="http://www.w3.org/2000/svg" width="20.221" height="20.221" viewBox="0 0 20.221 20.221">
  <g id="pen" transform="translate(0.104 0.1)">
    <path id="Path_157" data-name="Path 157" d="M39.339,20.246a3.748,3.748,0,0,1,0,5.3L28.3,36.589a5.865,5.865,0,0,1-2.892,1.584l-4.02.885a.8.8,0,0,1-.947-.947l.885-4.02A5.866,5.866,0,0,1,22.908,31.2l6.85-6.852a.794.794,0,0,1,1.123,1.123l-6.85,6.852a4.285,4.285,0,0,0-1.156,2.111l-.618,2.807,2.808-.617a4.294,4.294,0,0,0,2.013-1.061l.1-.1L38.216,24.426a2.16,2.16,0,0,0,0-3.057l-.087-.087a2.16,2.16,0,0,0-3.057,0l-1.549,1.547.014.014q.722.713,1.4,1.388l.269.268a.794.794,0,0,1-1.123,1.123Q33.018,24.559,31.84,23.4a.793.793,0,0,1,0-1.128l2.114-2.114a3.748,3.748,0,0,1,5.3,0Z" transform="translate(-20.42 -19.06)" fill="#151820" stroke="#151820" stroke-width="0.2"/>
  </g>
</svg>
