<svg xmlns="http://www.w3.org/2000/svg" width="15.9" height="22.729" viewBox="0 0 15.9 22.729">
  <g id="bottle" transform="translate(-26.342 -16.35)">
    <path id="Path_529" data-name="Path 529" d="M40.7,23.81a4.349,4.349,0,0,0-3.215-1.392h-.248v-1.5h.529a.327.327,0,0,0,.326-.326V17.708A1.01,1.01,0,0,0,37.083,16.7H31.5a1.01,1.01,0,0,0-1.007,1.007v2.881a.327.327,0,0,0,.326.326h.529v1.5H31.1a4.407,4.407,0,0,0-4.4,4.692l.646,9.98a1.757,1.757,0,0,0,1.751,1.64H39.485a1.761,1.761,0,0,0,1.751-1.64l.646-9.98a4.368,4.368,0,0,0-1.183-3.3ZM27.39,27.637h13.8l-.169,2.608H27.56ZM31.147,17.7a.355.355,0,0,1,.355-.355H37.08a.355.355,0,0,1,.355.355v2.555H36.313V19.209a.326.326,0,0,0-.652,0v1.049H34.618V19.209a.326.326,0,0,0-.652,0v1.049H32.919v-1a.326.326,0,0,0-.652,0v1H31.149V17.7ZM32,20.915h4.585v1.5H32Zm-3.639,3.342A3.709,3.709,0,0,1,31.1,23.07h6.382a3.748,3.748,0,0,1,3.746,3.916H27.354a3.711,3.711,0,0,1,1.007-2.728Zm12.224,12.79a1.1,1.1,0,0,1-1.1,1.03H29.1a1.107,1.107,0,0,1-1.1-1.03L27.6,30.9h13.38Z" transform="translate(0)" fill="#151820" stroke="#151820" stroke-width="0.7"/>
  </g>
</svg>
