<svg xmlns="http://www.w3.org/2000/svg" width="22.385" height="19.538" viewBox="0 0 22.385 19.538">
  <g id="speak" transform="translate(-25.477 -36.563)">
    <path id="Path_530" data-name="Path 530" d="M62.337,16.435l.479,10.288a2.531,2.531,0,0,1-2.531,2.648h-11.9l-4.323,4.007a.681.681,0,0,1-.45.181.693.693,0,0,1-.677-.794l.452-2.929h0a2.524,2.524,0,0,1-2.193-2.255l-.279-2.68-.452-3.159a2.546,2.546,0,0,1,1.805-2.794L59.107,14.12a2.53,2.53,0,0,1,3.23,2.315Zm-.875,10.35L61.01,16.5a1.2,1.2,0,0,0-1.543-1.078l-16.821,4.86a1.184,1.184,0,0,0-.839,1.3l.452,3.159h0a.073.073,0,0,0,0,.027l.279,2.707h0a1.174,1.174,0,0,0,1.173,1.059h.452a.677.677,0,0,1,.672.782l-.257,1.746L47.663,28.2a.706.706,0,0,1,.452-.181H60.3a1.174,1.174,0,0,0,1.178-1.232Zm-6.186-5.992a.765.765,0,0,0,.176,0l2.78-.745h0a.677.677,0,1,0-.347-1.308l-2.78.745a.676.676,0,0,0,.173,1.33Zm-1.714-.239h0a.676.676,0,0,0-.821-.492L45.105,21.98a.682.682,0,1,0,.168,1.354.609.609,0,0,0,.162-.044l7.634-1.917v0a.673.673,0,0,0,.491-.816Zm5.622.726-9.983,2.4a.678.678,0,0,0,.159,1.335.612.612,0,0,0,.157,0l9.985-2.4a.677.677,0,0,0-.32-1.313ZM46.721,24.294l-2.107.533h0a.682.682,0,0,0,.162,1.354.694.694,0,0,0,.168,0l2.107-.533a.677.677,0,1,0-.328-1.313Z" transform="translate(-14.956 22.543)" fill="#151820"/>
  </g>
</svg>
