<svg xmlns="http://www.w3.org/2000/svg" width="23.807" height="19.145" viewBox="0 0 23.807 19.145">
  <g id="users" transform="translate(-8.182 -16.451)">
    <path id="Path_534" data-name="Path 534" d="M36.22,54.168H33.869a4.7,4.7,0,0,0-4.7,4.7V61.22a1.174,1.174,0,0,0,1.175,1.175h9.4a1.174,1.174,0,0,0,1.175-1.175V58.868a4.7,4.7,0,0,0-4.7-4.7Zm3.526,6.465h0a.591.591,0,0,1-.588.588H30.931a.588.588,0,0,1-.588-.588V58.869a3.526,3.526,0,0,1,3.526-3.526H36.22a3.526,3.526,0,0,1,3.526,3.526Z" transform="translate(-14.959 -26.949)" fill="#151820" stroke="#151820" stroke-width="0.3"/>
    <path id="Path_535" data-name="Path 535" d="M13.162,51.964H10.094a.588.588,0,0,1-.587-.588v-.587a.942.942,0,0,1,0-.176,3.428,3.428,0,0,1,1.176-2.35,2.5,2.5,0,0,1,.282-.247l.259-.176h0a3.477,3.477,0,0,1,.471-.247,3.71,3.71,0,0,1,.612-.2,3.874,3.874,0,0,1,1.469,0h.058a3.71,3.71,0,0,1,.612.2,2.859,2.859,0,0,1,.47.247l.259.176.282.247.129.141a5.98,5.98,0,0,1,.975-.624,4.7,4.7,0,0,0-8.228,3.009v1.176a1.176,1.176,0,0,0,1.176,1.175h3.526a5.767,5.767,0,0,1,.129-1.175Z" transform="translate(0 -21.219)" fill="#151820" stroke="#151820" stroke-width="0.3"/>
    <path id="Path_536" data-name="Path 536" d="M17.532,23.329a5.7,5.7,0,0,1-.305-1.176,2.35,2.35,0,1,1,.587-3.443,5.955,5.955,0,0,1,.67-1.035,3.526,3.526,0,1,0-.963,5.654Z" transform="translate(-2.96 0)" fill="#151820" stroke="#151820" stroke-width="0.3"/>
    <path id="Path_537" data-name="Path 537" d="M66.026,45.832A4.7,4.7,0,0,0,62.5,47.524a5.958,5.958,0,0,1,1.07.576l.129-.141a2.615,2.615,0,0,1,.282-.247l.259-.176a3.592,3.592,0,0,1,.469-.247,3.741,3.741,0,0,1,.612-.2,3.83,3.83,0,0,1,1.469,0h.06a3.73,3.73,0,0,1,.61.2,2.989,2.989,0,0,1,.471.247l.259.176.282.247a3.431,3.431,0,0,1,1.175,2.35,2.546,2.546,0,0,1,0,.317v.447a.587.587,0,0,1-.587.587H65.9a5.842,5.842,0,0,1,.129,1.222h3.526a1.176,1.176,0,0,0,1.176-1.175V50.534a4.7,4.7,0,0,0-4.7-4.7Z" transform="translate(-38.889 -20.964)" fill="#151820" stroke="#151820" stroke-width="0.3"/>
    <path id="Path_538" data-name="Path 538" d="M68.659,16.666A3.522,3.522,0,0,0,66.168,17.7a5.955,5.955,0,0,1,.67,1.035,2.351,2.351,0,1,1,.646,3.443,5.7,5.7,0,0,1-.305,1.176,3.526,3.526,0,1,0,1.481-6.687Z" transform="translate(-41.522 -0.024)" fill="#151820" stroke="#151820" stroke-width="0.3"/>
    <path id="Path_539" data-name="Path 539" d="M38.034,26.07a4.7,4.7,0,1,0-3.324-1.377A4.7,4.7,0,0,0,38.034,26.07Zm0-8.228a3.526,3.526,0,1,1-3.526,3.526,3.526,3.526,0,0,1,3.526-3.526Z" transform="translate(-17.949 -0.027)" fill="#151820" stroke="#151820" stroke-width="0.3"/>
  </g>
</svg>
