<svg xmlns="http://www.w3.org/2000/svg" width="19.328" height="21.544" viewBox="0 0 19.328 21.544">
  <g id="thumb2" transform="translate(-2.348 -1.458)">
    <g id="Group_768" data-name="Group 768" transform="translate(2.496 1.608)">
      <path id="Path_556" data-name="Path 556" d="M40.085,31.53v-.72a1.871,1.871,0,0,0-.311-1.031,1.889,1.889,0,0,0,.876-1.588v-.72a1.89,1.89,0,0,0-1.889-1.889H35.552a11.606,11.606,0,0,0,.6-4.345l-.029-.3c-.018-.145-.033-.293-.058-.434l-.011-.054a2.156,2.156,0,0,0-2.077-1.592,2.032,2.032,0,0,0-2.03,1.447,3.839,3.839,0,0,0-.069.445c-.011.09-.018.181-.036.268a8,8,0,0,1-2.008,3.249,9.626,9.626,0,0,1-3.169,1.577c-.394.145-.738.268-.966.373a7,7,0,0,0-3.943,4.975,6.883,6.883,0,0,0-.141,1.389,7,7,0,0,0,7,7h3.289A1.883,1.883,0,0,0,33.2,40.1h2.46a1.89,1.89,0,0,0,1.889-1.889V37.5a1.9,1.9,0,0,0-.148-.734,1.889,1.889,0,0,0,1.852-1.885v-.72a1.839,1.839,0,0,0-.25-.919A1.9,1.9,0,0,0,40.085,31.53Zm-2.721.731H33.638a.733.733,0,0,1-.731-.731v-.72a.733.733,0,0,1,.731-.731h4.555a.733.733,0,0,1,.731.731v.72a.733.733,0,0,1-.731.731Zm2.127-4.79v.72a.733.733,0,0,1-.731.731H34.843a.709.709,0,0,1-.365-.1l-.033-.022a.7.7,0,0,1-.308-.438c0-.011-.007-.025-.011-.036a.989.989,0,0,1-.014-.137v-.72a.734.734,0,0,1,.673-.727.311.311,0,0,1,.058,0h3.918A.731.731,0,0,1,39.492,27.47ZM28.617,38.418a5.846,5.846,0,0,1-5.839-5.839,5.992,5.992,0,0,1,.116-1.161,5.841,5.841,0,0,1,3.292-4.15c.185-.087.506-.2.876-.336a9.876,9.876,0,0,0,3.643-1.9,8.916,8.916,0,0,0,2.272-3.781c.025-.123.04-.246.054-.373a2.4,2.4,0,0,1,.047-.311.9.9,0,0,1,.9-.554,1,1,0,0,1,.951.709q.027.168.043.347l.022.253a10.355,10.355,0,0,1-.716,4.341h0c-.011,0-.022.011-.033.014a1.728,1.728,0,0,0-.268.109c-.033.018-.062.036-.094.058-.062.036-.119.072-.177.112-.033.025-.065.054-.1.08a1.661,1.661,0,0,0-.141.134l-.087.1c-.04.051-.08.1-.112.152s-.047.072-.069.109a1.606,1.606,0,0,0-.087.177c-.018.04-.036.076-.051.116a2,2,0,0,0-.062.21c-.007.036-.018.069-.025.1a2.035,2.035,0,0,0-.033.333v.619c-.232.619-1.8,4.294-5.951,3.18a.579.579,0,0,0-.3,1.118,6.975,6.975,0,0,0,1.82.253,5.233,5.233,0,0,0,3.231-1.082,2.017,2.017,0,0,0,.04.365,1.223,1.223,0,0,0,.04.123,1.968,1.968,0,0,0,.083.246c.022.047.047.087.072.134a1.343,1.343,0,0,0,.119.2c.033.043.069.083.1.123a2.035,2.035,0,0,0,.148.159c.014.014.025.029.04.043-.022.025-.036.058-.058.083a1.251,1.251,0,0,0-.08.112c-.036.061-.069.123-.1.188-.018.04-.04.08-.058.119a1.608,1.608,0,0,0-.069.224,1.016,1.016,0,0,0-.029.112,1.94,1.94,0,0,0-.036.358v.72a1.845,1.845,0,0,0,.065.47,1.223,1.223,0,0,0,.04.123,2.063,2.063,0,0,0,.145.329c.011.022.018.047.029.069a.315.315,0,0,0-.036.029,1.755,1.755,0,0,0-.344.268h0a1.861,1.861,0,0,0-.264.34c-.022.036-.04.076-.061.112a1.7,1.7,0,0,0-.127.3c-.014.043-.029.083-.04.127a1.868,1.868,0,0,0-.062.452v.72a1.97,1.97,0,0,0,.011.206h-2.7Zm7.771-.206a.733.733,0,0,1-.731.731H33.2a.734.734,0,0,1-.731-.734v-.72a.733.733,0,0,1,.731-.731h2.46a.733.733,0,0,1,.731.731ZM38.1,34.869a.733.733,0,0,1-.731.731H33.856a.733.733,0,0,1-.731-.731v-.72a.733.733,0,0,1,.731-.731h3.513a.731.731,0,0,1,.731.731v.72Z" transform="translate(-21.62 -18.86)" fill="#151820" stroke="#151820" stroke-width="0.3"/>
    </g>
  </g>
</svg>
