<svg xmlns="http://www.w3.org/2000/svg" width="20.766" height="18.515" viewBox="0 0 20.766 18.515">
  <g id="gift" transform="translate(-4.75 -9.75)">
    <path id="Path_557" data-name="Path 557" d="M24.7,13.378H20.458A2.248,2.248,0,0,0,18.511,10a4.292,4.292,0,0,0-3.378,2.125A4.292,4.292,0,0,0,11.755,10a2.248,2.248,0,0,0-1.947,3.378H5.563A.563.563,0,0,0,5,13.941v3.378a.563.563,0,0,0,.563.563h.563v9.57a.563.563,0,0,0,.563.563H23.577a.563.563,0,0,0,.563-.563v-9.57H24.7a.563.563,0,0,0,.563-.563V13.941A.563.563,0,0,0,24.7,13.378Zm-6.192-2.252a1.126,1.126,0,1,1,0,2.252H15.788A3.319,3.319,0,0,1,18.511,11.126ZM10.63,12.252a1.127,1.127,0,0,1,1.126-1.126,3.319,3.319,0,0,1,2.723,2.252H11.755A1.127,1.127,0,0,1,10.63,12.252ZM6.126,14.5H14.57v2.252H6.126Zm1.126,3.378H14.57v9.007H7.252Zm15.763,9.007H15.7V17.881h7.318ZM24.14,16.755H15.7V14.5H24.14Z" stroke="#000" stroke-width="0.5"/>
  </g>
</svg>
