<svg xmlns="http://www.w3.org/2000/svg" width="32.679" height="34.459" viewBox="0 0 32.679 34.459">
  <g id="safe" transform="translate(0.701 0.7)">
    <g id="Group_8" data-name="Group 8" transform="translate(0 0)">
      <path id="Path_13" data-name="Path 13" d="M42.094,18.765a.771.771,0,0,1-1.5-.381q.5-1.927.861-4.166.333-2.059.531-4.423A21.732,21.732,0,0,0,27.928,5.05,21.734,21.734,0,0,0,13.866,9.794c1.744,21.153,12.586,24.8,14.062,25.2,1.027-.28,6.554-2.128,10.447-10.351a.773.773,0,1,1,1.4.659C35.329,34.688,28.669,36.406,28.13,36.532a.78.78,0,0,1-.372.008c-.04-.009-13.618-2.829-15.468-27.013a.772.772,0,0,1,.254-.632c3.991-3.6,9.693-5.4,15.382-5.4S39.3,5.292,43.289,8.876a.773.773,0,0,1,.276.651c-.134,1.742-.33,3.385-.579,4.932s-.548,2.968-.891,4.306Zm-15.9,2.613c-.3-.3-2.013-2.276-1.71-2.578a.775.775,0,0,1,1.1,0L27.3,20.529l4.435-4.435a.774.774,0,0,1,1.1,1.1l-4.983,4.983a.663.663,0,0,1-1,0l-.662-.793Z" transform="translate(-12.289 -3.5)" fill="#f85200" stroke="#f85200" stroke-width="1.4"/>
    </g>
  </g>
</svg>
